<svg width="45" height="45" viewBox="0 0 45 45" fill="none" xmlns="http://www.w3.org/2000/svg">
<rect width="45" height="45" rx="22.5" fill="white"/>
<path d="M29.8889 16.7381H27.7778C27.7778 13.8048 25.4556 11.5 22.5 11.5C19.5444 11.5 17.2222 13.8048 17.2222 16.7381H15.1111C13.95 16.7381 13 17.681 13 18.8333V31.4048C13 32.5571 13.95 33.5 15.1111 33.5H29.8889C31.05 33.5 32 32.5571 32 31.4048V18.8333C32 17.681 31.05 16.7381 29.8889 16.7381ZM22.5 13.5952C24.2944 13.5952 25.6667 14.9571 25.6667 16.7381H19.3333C19.3333 14.9571 20.7056 13.5952 22.5 13.5952ZM29.8889 31.4048H15.1111V18.8333H29.8889V31.4048ZM22.5 23.0238C20.7056 23.0238 19.3333 21.6619 19.3333 19.881H17.2222C17.2222 22.8143 19.5444 25.119 22.5 25.119C25.4556 25.119 27.7778 22.8143 27.7778 19.881H25.6667C25.6667 21.6619 24.2944 23.0238 22.5 23.0238Z" fill="black"/>
</svg>
